<?xml version="1.0" encoding="utf-8"?>
<!-- Generator: Adobe Illustrator 16.0.0, SVG Export Plug-In . SVG Version: 6.00 Build 0)  -->
<!DOCTYPE svg PUBLIC "-//W3C//DTD SVG 1.1//EN" "http://www.w3.org/Graphics/SVG/1.1/DTD/svg11.dtd">
<svg version="1.1" id="Layer_1" xmlns="http://www.w3.org/2000/svg" xmlns:xlink="http://www.w3.org/1999/xlink" x="0px" y="0px"
	 width="1280px" height="184.286px" viewBox="0 0 1280 184.286" enable-background="new 0 0 1280 184.286" xml:space="preserve">
<g>
	<path fill="#C4DD00" d="M14.721,62.208c5.835-2.143,11.49-3.511,16.935-3.511c9.745,0,12.663,4.677,14.421,13.054l6.031,31.356
		c2.526,12.662,4.481,23.754,5.068,30.385c0.195,1.361,0.39,1.746,1.549,1.746l10.722-73.811c4.873-0.978,13.821-1.362,17.521-1.362
		c3.895,0,13.444,0.384,18.121,1.362l10.903,72.064c0.196,1.361,0.392,1.746,1.564,1.746c1.354-8.955,2.918-20.055,5.25-32.131
		l8.767-42.462c3.309-0.97,7.986-1.361,11.686-1.361c4.09,0,11.685,0.391,15.971,2.527l0.978,1.948l-22.784,93.88
		c-6.045,0.977-15.189,1.166-22.211,1.166c-11.686,0-17.521-1.947-19.28-13.822l-3.113-20.836
		c-1.564-9.744-3.505-23.378-5.068-36.822h-1.172c-1.55,13.255-3.7,26.693-5.054,36.423l-5.459,33.891
		c-6.227,0.781-15.776,1.166-22.979,1.166c-11.49,0-16.948-2.527-19.476-14.213L14.721,62.208z"/>
	<path fill="#C4DD00" d="M241.25,149.073c-8.181,7.984-18.889,11.49-30.965,11.49c-12.271,0-22.98-3.506-30.965-11.49
		c-10.332-10.326-14.031-22.98-14.031-40.131c0-16.941,3.699-29.597,14.031-39.922c7.985-7.985,18.694-11.489,30.965-11.489
		c12.076,0,22.784,3.504,30.965,11.489c10.331,10.325,14.03,22.98,14.03,39.922C255.28,126.093,251.581,138.747,241.25,149.073z
		 M210.285,137.771c11.88,0,13.64-12.656,13.64-28.828c0-15.964-1.759-28.627-13.64-28.627c-12.076,0-13.835,12.664-13.835,28.627
		C196.45,125.114,198.209,137.771,210.285,137.771z"/>
	<path fill="#FFA900" d="M316.052,85.962c-4.09,0.196-8.768,2.729-12.844,6.625v65.051c-4.286,0.781-9.94,1.166-15.203,1.166
		c-5.053,0-10.903-0.385-15.189-1.166V60.449l1.368-1.368h11.294c8.376,0,13.821,4.482,16.362,12.272
		c7.594-7.009,16.753-12.656,26.875-12.656c10.708,0,18.498,5.263,22.784,13.437c8.376-7.392,19.293-13.437,30.001-13.437
		c17.145,0,25.897,13.242,25.897,30.972v43.621c0,7.594,1.369,14.422,4.872,19.287c-4.481,3.895-11.294,6.625-18.889,6.625
		c-12.271,0-16.362-6.625-16.362-18.896V98.819c0-10.323-5.068-12.857-9.159-12.857c-3.699,0-8.376,2.729-12.467,6.82v64.855
		c-4.286,0.781-10.122,1.166-15.385,1.166c-5.054,0-10.708-0.385-15.189-1.166V99.015C324.82,88.691,320.338,85.962,316.052,85.962z
		"/>
	<path fill="#FFA900" d="M503.449,159.202c-9.94-0.195-16.753-4.678-21.04-10.324c-6.813,6.428-15.776,11.686-28.438,11.686
		c-20.062,0-29.597-15.582-29.597-29.605c0-23.37,18.498-33.693,38.56-33.693c3.503,0,8.768,0,13.835,0.39v-3.699
		c0-8.181-3.909-12.271-12.663-12.271c-8.377,0-18.512,3.113-28.634,6.227c-4.286-5.061-6.631-13.626-7.399-21.221
		c13.04-5.263,31.943-8.572,44.591-8.572c16.949,0,34.679,8.572,34.679,33.303v39.537c0,5.648,1.55,9.926,5.445,12.656
		C511.63,148.878,507.344,156.276,503.449,159.202z M476.77,132.522v-15.588c-3.909-0.195-7.804-0.385-10.527-0.385
		c-8.768,0-12.271,5.063-12.271,12.461c0,5.256,3.504,9.158,8.963,9.158C467.416,138.169,472.288,136.214,476.77,132.522z"/>
	<path fill="#FC5500" d="M609.607,133.101c2.136,6.813,3.896,12.662,9.354,16.557c-4.873,5.445-12.663,9.545-20.453,9.545
		c-8.768,0-12.271-3.701-15.581-13.641l-5.85-16.746c-2.722-8.377-5.835-10.129-11.294-10.129c-2.345,0-4.286,0-6.045,0.195v38.756
		c-4.286,0.781-9.73,1.166-14.993,1.166c-5.069,0-10.318-0.385-14.604-1.166V15.648l1.354-1.354h11.699
		c12.076,0,16.544,4.67,16.544,18.303v61.156h3.127c2.723,0,3.895-0.58,5.445-3.498l10.136-19.482
		c3.699-7.399,8.963-11.099,17.129-11.099c6.436,0,11.308,0.188,16.949,0.391l1.172,1.55L598.704,90.64
		c-2.541,4.865-5.654,8.572-9.94,11.489c7.399,2.729,13.053,8.181,15.971,16.753L609.607,133.101z"/>
	<path fill="#FC5500" d="M653.834,118.882c0.979,10.512,4.678,18.506,17.523,18.506c8.766,0,17.338-2.73,25.324-5.85
		c4.48,4.48,7.203,11.879,7.984,17.926c-9.73,7.008-24.543,11.1-38.168,11.1c-34.289,0-43.433-25.123-43.433-50.84
		c0-29.409,12.649-52.192,43.628-52.192c25.701,0,40.514,17.723,40.514,41.288c0,8.573-0.586,13.635-2.541,20.063H653.834z
		 M653.641,97.85h25.701V95.7c0-8.957-3.699-16.551-12.844-16.551C657.926,79.149,654.422,85.188,653.641,97.85z"/>
	<path fill="#FC5500" d="M729.027,58.892c12.469,0.97,20.453,7.4,24.936,17.724c4.271-10.128,11.686-17.535,24.348-17.535
		c5.836,0,8.949,0.782,12.844,1.564c0,7.21-2.527,20.062-7.596,28.438c-3.309-1.173-6.617-1.557-9.926-1.948
		c-7.021,0-11.881,3.505-15.971,9.935v60.568c-4.287,0.781-9.939,1.166-15.203,1.166c-5.055,0-10.709-0.385-15.191-1.166V94.729
		c0-11.49-4.285-17.918-7.398-20.256C721.043,69.216,725.33,61.81,729.027,58.892z"/>
	<path fill="#FC5500" d="M803.635,130.372c8.572,4.48,19.281,8.18,27.07,8.18c7.4,0,11.295-2.916,11.295-6.811
		c0-3.701-2.527-6.627-8.963-8.775l-10.709-4.084c-13.639-5.061-24.348-13.438-24.348-29.213c0-19.678,14.799-32.138,37.793-32.138
		c11.684,0,27.264,3.896,35.838,8.181c0.377,7.204-3.504,17.527-8.377,21.227c-8.182-3.7-17.926-7.406-27.266-7.406
		c-5.264,0-8,2.73-8,6.241c0,3.309,2.15,5.452,7.412,7.399l12.076,4.279c14.801,5.264,25.898,14.805,25.898,31.363
		c0,19.475-15.58,31.748-39.34,31.748c-15.191,0-29.795-4.477-38.758-9.543C795.453,144.396,799.154,135.05,803.635,130.372z"/>
	<path fill="#E40053" d="M926.547,80.127c-8.963,0-12.078,8.761-12.078,29.212c0,20.648,5.836,27.463,16.949,27.463
		c7.596,0,15.191-3.896,21.418-8.182c4.871,2.721,10.135,10.91,11.49,16.941c-8.574,9.158-23.566,15.002-37.779,15.002
		c-28.047,0-43.041-20.063-43.041-51.225c0-37.784,22.197-51.808,43.613-51.808c21.82,0,37.986,13.046,37.986,32.325
		c0,10.129-6.436,14.807-14.994,14.807c-5.066,0-8.375-0.384-12.271-1.166C938.035,88.496,936.668,80.127,926.547,80.127z"/>
	<path fill="#E40053" d="M1050.422,149.073c-8.182,7.984-18.889,11.49-30.965,11.49c-12.273,0-22.98-3.506-30.967-11.49
		c-10.33-10.326-14.029-22.98-14.029-40.131c0-16.941,3.699-29.597,14.029-39.922c7.986-7.985,18.693-11.489,30.967-11.489
		c12.076,0,22.783,3.504,30.965,11.489c10.33,10.325,14.029,22.98,14.029,39.922
		C1064.451,126.093,1060.752,138.747,1050.422,149.073z M1019.457,137.771c11.879,0,13.639-12.656,13.639-28.828
		c0-15.964-1.76-28.627-13.639-28.627c-12.076,0-13.822,12.664-13.822,28.627C1005.635,125.114,1007.381,137.771,1019.457,137.771z"
		/>
	<path fill="#E40053" d="M1115.492,58.501c6.814,0,12.664,1.759,18.107,4.293V15.648l1.174-1.354h11.881
		c12.074,0,16.557,4.67,16.557,18.303v96.994c0,6.232,2.137,11.691,5.459,14.023c-1.172,5.264-5.459,12.662-9.355,15.588
		c-9.744-0.195-16.557-4.287-20.842-10.912c-6.814,7.211-16.166,12.273-26.875,12.273c-23.762,0-35.057-20.846-35.057-50.441
		C1076.541,76.616,1094.258,58.501,1115.492,58.501z M1133.6,128.425V85.774c-4.664-2.729-8.949-4.677-12.662-4.677
		c-9.34,0-13.234,11.294-13.234,29.212c0,18.115,4.871,25.709,11.684,25.709C1123.283,136.019,1128.742,134.47,1133.6,128.425z"/>
	<path fill="#E40053" d="M1211.92,118.882c0.963,10.512,4.662,18.506,17.521,18.506c8.766,0,17.34-2.73,25.326-5.85
		c4.48,4.48,7.203,11.879,7.984,17.926c-9.744,7.008-24.545,11.1-38.184,11.1c-34.273,0-43.432-25.123-43.432-50.84
		c0-29.409,12.662-52.192,43.627-52.192c25.717,0,40.516,17.723,40.516,41.288c0,8.573-0.586,13.635-2.527,20.063H1211.92z
		 M1211.725,97.85h25.703V95.7c0-8.957-3.701-16.551-12.859-16.551C1215.996,79.149,1212.492,85.188,1211.725,97.85z"/>
</g>
</svg>
